<?xml version="1.0" encoding="UTF-8" standalone="no"?>
<svg
   width="1325"
   height="260"
   viewBox="35 30 1325 260"
   version="1.1"
   id="svg1"
   xmlns="http://www.w3.org/2000/svg"
   xmlns:svg="http://www.w3.org/2000/svg">
  <defs
     id="defs1" />
  <path
     d="m 142.35,119.5 q 10.2,2.85 15.75,9.9 5.7,6.9 5.7,16.95 0,11.85 -6.75,22.05 -6.75,10.2 -19.2,16.35 -12.3,6 -28.35,6 -19.05,0 -30,-8.25 -10.8,-8.25 -10.8,-22.95 0,-7.5 2.7,-11.1 2.85,-3.6 8.55,-3.6 4.2,0 6.6,2.4 2.55,2.25 2.55,6.6 0,7.8 1.95,12.3 2.1,4.35 6.6,6.45 4.65,1.95 12.9,1.95 9,0 16.05,-4.05 7.2,-4.05 11.1,-10.65 4.05,-6.6 4.05,-14.1 0,-6.3 -3,-10.5 -3,-4.35 -7.8,-5.1 -11.55,6.6 -23.4,6.6 -4.95,0 -7.05,-1.65 -2.1,-1.65 -2.1,-5.4 0,-5.4 5.7,-8.25 5.85,-2.85 18.3,-3.45 15.3,-9.6 15.3,-25.2 0,-6.6 -3.75,-10.2 -3.75,-3.75 -11.25,-3.75 -7.05,0 -12.45,2.25 -5.4,2.1 -8.4,5.85 -3,3.6 -3,7.8 0,1.2 0.3,3.15 0.3,1.95 0.3,3 0,3.75 -2.4,5.7 -2.25,1.8 -6.15,1.8 -5.7,0 -8.25,-4.05 -2.55,-4.2 -2.55,-11.1 0,-8.25 5.4,-15.15 5.55,-7.05 15.75,-11.1 10.2,-4.2 23.55,-4.2 17.25,0 25.2,6.9 7.95,6.9 7.95,18.9 0,9 -4.05,17.1 -3.9,7.95 -11.55,13.8 z m 52.05006,71.25 q -9.3,0 -14.85,-6.75 -5.55,-6.75 -5.55,-17.7 0,-12 5.55,-22.65 5.55,-10.8 14.7,-17.25 9.3,-6.6 19.65,-6.6 3.3,0 4.35,1.35 1.2,1.2 1.95,4.5 3.15,-0.6 6.6,-0.6 7.35,0 7.35,5.25 0,3.15 -2.25,15 -3.45,17.25 -3.45,24 0,2.25 1.05,3.6 1.2,1.35 3,1.35 2.85,0 6.9,-3.6 4.05,-3.75 10.95,-12 1.8,-2.1 4.05,-2.1 1.95,0 3,1.8 1.2,1.8 1.2,4.95 0,6 -2.85,9.3 -6.15,7.65 -13.05,12.9 -6.9,5.25 -13.35,5.25 -4.95,0 -9.15,-3.3 -4.05,-3.45 -6.15,-9.3 -7.8,12.6 -19.65,12.6 z m 5.4,-15.15 q 3.3,0 6.3,-3.9 3,-3.9 4.35,-10.35 l 5.55,-27.6 q -6.3,0.15 -11.7,4.8 -5.25,4.5 -8.4,12 -3.15,7.5 -3.15,15.9 0,4.65 1.8,6.9 1.95,2.25 5.25,2.25 z m 57.29989,15.15 q -5.7,0 -8.1,-6 -2.25,-6 -2.25,-19.2 0,-19.5 5.55,-37.05 1.35,-4.35 4.35,-6.3 3.15,-2.1 8.7,-2.1 3,0 4.2,0.75 1.2,0.75 1.2,2.85 0,2.4 -2.25,10.8 -1.5,6 -2.4,10.5 -0.9,4.5 -1.5,11.1 4.95,-12.9 11.1,-21 6.15,-8.1 12,-11.55 6,-3.45 10.95,-3.45 9.75,0 9.75,9.75 0,5.85 -3.3,21.15 -2.85,13.05 -2.85,17.25 0,6 4.35,6 3,0 7.05,-3.6 4.2,-3.75 11.1,-12 1.8,-2.1 4.05,-2.1 1.95,0 3,1.8 1.2,1.8 1.2,4.95 0,6 -2.85,9.3 -6.45,7.95 -13.95,13.05 -7.35,5.1 -16.8,5.1 -7.65,0 -11.55,-4.35 -3.9,-4.5 -3.9,-12.9 0,-4.2 2.1,-15 1.95,-9.45 1.95,-13.05 0,-2.4 -1.65,-2.4 -1.95,0 -5.55,5.1 -3.45,4.95 -7.2,13.2 -3.6,8.25 -5.85,17.4 -1.65,7.05 -3.9,9.6 -2.1,2.4 -6.75,2.4 z m 143.85004,-34.2 q 1.95,0 3,1.8 1.2,1.8 1.2,4.95 0,6 -2.85,9.3 -6.45,7.95 -13.95,13.05 -7.35,5.1 -16.8,5.1 -7.95,0 -12.9,-5.7 -8.55,5.55 -17.85,5.7 -1.95,28.95 -8.85,48.3 -6.9,19.5 -20.25,19.5 -8.1,0 -12,-5.85 -3.9,-5.85 -3.9,-16.2 0,-14.7 6.75,-34.35 6.75,-19.5 20.85,-43.05 0,-21.9 -0.3,-30.45 -0.15,-4.35 3.45,-6.9 3.6,-2.55 9,-2.55 3.15,0 4.5,1.35 1.5,1.2 1.65,4.95 0,3.75 0.15,5.55 4.8,-6 9.45,-8.55 4.65,-2.7 9.9,-2.7 8.4,0 13.65,6.75 5.4,6.75 5.4,17.7 0,7.95 -2.55,15.45 -2.55,7.5 -7.05,13.65 3.15,0.9 5.25,0.9 4.95,0 9.45,-3.6 4.5,-3.6 11.55,-12 1.8,-2.1 4.05,-2.1 z m -59.4,19.8 q 5.4,-1.2 9.9,-5.85 4.65,-4.8 7.35,-11.7 2.7,-7.05 2.7,-14.7 0,-4.5 -1.8,-6.75 -1.8,-2.4 -4.8,-2.4 -5.4,0 -13.05,11.4 -0.15,6.6 -0.15,19.35 0,6.9 -0.15,10.65 z m -28.65,67.5 q 4.05,0 6.75,-17.7 2.7,-17.55 3.45,-43.8 -6.45,15 -10.2,28.65 -3.75,13.65 -3.75,22.95 0,4.8 1.2,7.35 1.05,2.55 2.55,2.55 z m 147.00012,-87.3 q 1.95,0 3,1.8 1.2,1.8 1.2,4.95 0,6 -2.85,9.3 -5.55,6.75 -15.75,12.45 -10.05,5.7 -21.6,5.7 -15.75,0 -24.45,-8.55 -8.7,-8.55 -8.7,-23.4 0,-10.35 4.35,-19.2 4.35,-9 12,-14.25 7.8,-5.25 17.55,-5.25 8.7,0 13.95,5.25 5.25,5.1 5.25,13.95 0,10.35 -7.5,17.85 -7.35,7.35 -25.05,11.7 3.75,6.9 14.25,6.9 6.75,0 15.3,-4.65 8.7,-4.8 15,-12.45 1.8,-2.1 4.05,-2.1 z m -37.8,-21.75 q -5.55,0 -9.45,6.45 -3.75,6.45 -3.75,15.6 v 0.3 q 8.85,-2.1 13.95,-6.3 5.1,-4.2 5.1,-9.75 0,-2.85 -1.65,-4.5 -1.5,-1.8 -4.2,-1.8 z m 40.49995,55.95 q -5.7,0 -8.1,-6 -2.25,-6 -2.25,-19.2 0,-19.5 5.55,-37.05 1.35,-4.35 4.35,-6.3 3.15,-2.1 8.7,-2.1 3,0 4.2,0.75 1.2,0.75 1.2,2.85 0,2.4 -2.25,10.8 -1.5,6 -2.4,10.5 -0.9,4.35 -1.5,10.95 4.05,-11.7 9.6,-19.8 5.7,-8.1 11.55,-12 6,-4.05 11.25,-4.05 5.25,0 7.35,2.4 2.25,2.4 2.25,7.35 0,4.8 -2.85,17.4 -1.2,5.4 -1.65,8.1 7.5,-18.45 16.65,-26.85 9.15,-8.4 17.1,-8.4 9.75,0 9.75,9.75 0,5.85 -3.3,21.15 -2.85,13.05 -2.85,17.25 0,6 4.35,6 3,0 7.05,-3.6 4.2,-3.75 11.1,-12 1.8,-2.1 4.05,-2.1 1.95,0 3,1.8 1.2,1.8 1.2,4.95 0,6 -2.85,9.3 -6.45,7.95 -13.95,13.05 -7.35,5.1 -16.8,5.1 -7.65,0 -11.55,-4.35 -3.9,-4.5 -3.9,-12.9 0,-4.2 2.1,-15 1.95,-9.45 1.95,-13.05 0,-2.4 -1.65,-2.4 -1.95,0 -5.55,5.1 -3.6,4.95 -7.2,13.2 -3.6,8.25 -5.85,17.4 -1.65,7.2 -3.9,9.6 -2.1,2.4 -6.9,2.4 -4.95,0 -7.5,-4.65 -2.4,-4.8 -2.4,-11.55 0,-5.7 1.5,-16.5 1.2,-9.6 1.2,-12.6 0,-2.4 -1.65,-2.4 -2.25,0 -5.7,5.4 -3.45,5.4 -6.75,13.8 -3.15,8.4 -5.1,16.5 -1.65,7.05 -3.9,9.6 -2.1,2.4 -6.75,2.4 z m 180.14995,-34.2 q 1.95,0 3,1.8 1.2,1.8 1.2,4.95 0,6 -2.85,9.3 -6.9,7.95 -14.25,13.05 -7.2,5.1 -16.5,5.1 -7.8,0 -10.95,-4.8 -3.15,-4.8 -3.15,-14.4 0,-4.05 0.75,-9.75 -13.2,0 -18.3,-0.3 -0.3,4.2 -0.3,5.85 v 3.15 q -0.15,9.3 -0.45,13.05 -0.3,3.75 -1.8,5.55 -1.5,1.65 -4.95,1.65 -5.7,0 -8.1,-6 -2.25,-6 -2.25,-19.2 0,-19.5 5.55,-37.05 1.35,-4.35 4.35,-6.3 3,-2.1 8.7,-2.1 3,0 4.2,0.75 1.2,0.75 1.2,2.85 0,2.4 -2.25,10.8 -1.2,4.95 -2.25,12 h 19.2 q 1.5,-7.05 4.35,-18 1.2,-4.5 3.6,-6.45 2.55,-1.95 7.5,-1.95 3.45,0 4.8,0.9 1.35,0.75 1.35,3 0,3.75 -3.75,20.55 -4.2,19.2 -4.2,23.7 0,2.85 1.2,4.5 1.2,1.5 3.15,1.5 3,0 7.05,-3.6 4.2,-3.75 11.1,-12 1.8,-2.1 4.05,-2.1 z m 105.30003,0 q 1.95,0 3,1.8 1.2,1.8 1.2,4.95 0,6 -2.85,9.3 -14.85,18.15 -27.75,18.15 -9.75,0 -14.25,-6.9 -4.35,-6.9 -4.35,-18.3 v -2.25 q -8.25,12.45 -18.3,19.95 -9.9,7.5 -20.85,7.5 -13.05,0 -20.85,-7.8 -7.65,-7.8 -7.65,-20.1 0,-9 1.35,-17.1 1.35,-8.1 4.2,-17.25 1.35,-4.35 4.35,-6.3 3.15,-2.1 9,-2.1 6.75,0 6.75,3.6 0,1.5 -2.25,10.8 l -1.05,4.5 -2.1,9 q 4.05,-4.05 9.6,-6.6 5.7,-2.7 11.55,-2.7 6.9,0 11.4,4.2 4.5,4.05 5.1,11.55 5.85,-7.05 9.6,-13.2 3.75,-6.3 6.45,-13.05 1.35,-4.5 3.45,-6.3 2.25,-1.8 7.2,-1.8 7.65,0 7.65,5.1 0,3.75 -2.85,17.4 -3.6,16.5 -3.6,22.35 0,4.5 1.2,6.9 1.2,2.4 4.05,2.4 2.7,0 6.75,-3.75 4.05,-3.75 10.8,-11.85 1.8,-2.1 4.05,-2.1 z m -70.2,5.85 q 0,-7.95 -8.55,-7.95 -5.1,0 -9,2.85 -3.75,2.85 -6,6.6 0.6,5.55 3.15,8.25 2.55,2.7 7.8,2.7 6,0 9.3,-3.3 3.3,-3.3 3.3,-9.15 z m 129.14998,-5.85 q 1.95,0 3,1.8 1.2,1.8 1.2,4.95 0,6 -2.85,9.3 -5.55,6.75 -15.75,12.45 -10.05,5.7 -21.6,5.7 -15.75,0 -24.45,-8.55 -8.7,-8.55 -8.7,-23.4 0,-10.35 4.35,-19.2 4.35,-9 12,-14.25 7.8,-5.25 17.55,-5.25 8.7,0 13.95,5.25 5.25,5.1 5.25,13.95 0,10.35 -7.5,17.85 -7.35,7.35 -25.05,11.7 3.75,6.9 14.25,6.9 6.75,0 15.3,-4.65 8.7,-4.8 15,-12.45 1.8,-2.1 4.05,-2.1 z m -37.8,-21.75 q -5.55,0 -9.45,6.45 -3.75,6.45 -3.75,15.6 v 0.3 q 8.85,-2.1 13.95,-6.3 5.1,-4.2 5.1,-9.75 0,-2.85 -1.65,-4.5 -1.5,-1.8 -4.2,-1.8 z m 144.74983,-15.3 q 10.2,2.85 15.75,9.9 5.7,6.9 5.7,16.95 0,11.85 -6.75,22.05 -6.75,10.2 -19.2,16.35 -12.3,6 -28.35,6 -19.05,0 -30,-8.25 -10.8,-8.25 -10.8,-22.95 0,-7.5 2.7,-11.1 2.85,-3.6 8.55,-3.6 4.2,0 6.6,2.4 2.55,2.25 2.55,6.6 0,7.8 1.95,12.3 2.1,4.35 6.6,6.45 4.65,1.95 12.9,1.95 9,0 16.05,-4.05 7.2,-4.05 11.1,-10.65 4.05,-6.6 4.05,-14.1 0,-6.3 -3,-10.5 -3,-4.35 -7.8,-5.1 -11.55,6.6 -23.4,6.6 -4.95,0 -7.05,-1.65 -2.1,-1.65 -2.1,-5.4 0,-5.4 5.7,-8.25 5.85,-2.85 18.3,-3.45 15.3,-9.6 15.3,-25.2 0,-6.6 -3.75,-10.2 -3.75,-3.75 -11.25,-3.75 -7.05,0 -12.45,2.25 -5.4,2.1 -8.4,5.85 -3,3.6 -3,7.8 0,1.2 0.3,3.15 0.3,1.95 0.3,3 0,3.75 -2.4,5.7 -2.25,1.8 -6.15,1.8 -5.7,0 -8.25,-4.05 -2.55,-4.2 -2.55,-11.1 0,-8.25 5.4,-15.15 5.55,-7.05 15.75,-11.1 10.2,-4.2 23.55,-4.2 17.25,0 25.2,6.9 7.95,6.9 7.95,18.9 0,9 -4.05,17.1 -3.9,7.95 -11.55,13.8 z m 112.80005,37.05 q 1.95,0 3,1.8 1.2,1.8 1.2,4.95 0,6 -2.85,9.3 -6.9,7.95 -14.25,13.05 -7.2,5.1 -16.49999,5.1 -7.8,0 -10.95,-4.8 -3.15,-4.8 -3.15,-14.4 0,-4.05 0.75,-9.75 -13.2,0 -18.3,-0.3 -0.3,4.2 -0.3,5.85 v 3.15 q -0.15,9.3 -0.45,13.05 -0.3,3.75 -1.8,5.55 -1.5,1.65 -4.95,1.65 -5.7,0 -8.1,-6 -2.25,-6 -2.25,-19.2 0,-19.5 5.55,-37.05 1.35,-4.35 4.35,-6.3 3,-2.1 8.7,-2.1 3,0 4.2,0.75 1.2,0.75 1.2,2.85 0,2.4 -2.25,10.8 -1.2,4.95 -2.25,12 h 19.2 q 1.5,-7.05 4.35,-18 1.2,-4.5 3.6,-6.45 2.55,-1.95 7.49999,-1.95 3.45,0 4.8,0.9 1.35,0.75 1.35,3 0,3.75 -3.75,20.55 -4.2,19.2 -4.2,23.7 0,2.85 1.2,4.5 1.2,1.5 3.15,1.5 3,0 7.05,-3.6 4.2,-3.75 11.1,-12 1.8,-2.1 4.05,-2.1 z m 10.5001,34.2 q -9.3,0 -14.85,-6.75 -5.55,-6.75 -5.55,-17.7 0,-12 5.55,-22.65 5.55,-10.8 14.7,-17.25 9.3,-6.6 19.65,-6.6 3.3,0 4.35,1.35 1.2,1.2 1.95,4.5 3.15,-0.6 6.6,-0.6 7.35,0 7.35,5.25 0,3.15 -2.25,15 -3.45,17.25 -3.45,24 0,2.25 1.05,3.6 1.2,1.35 3,1.35 2.85,0 6.9,-3.6 4.05,-3.75 10.95,-12 1.8,-2.1 4.05,-2.1 1.95,0 3,1.8 1.2,1.8 1.2,4.95 0,6 -2.85,9.3 -6.15,7.65 -13.05,12.9 -6.9,5.25 -13.35,5.25 -4.95,0 -9.15,-3.3 -4.05,-3.45 -6.15,-9.3 -7.8,12.6 -19.65,12.6 z m 5.4,-15.15 q 3.3,0 6.3,-3.9 3,-3.9 4.35,-10.35 l 5.55,-27.6 q -6.3,0.15 -11.7,4.8 -5.25,4.5 -8.4,12 -3.15,7.5 -3.15,15.9 0,4.65 1.8,6.9 1.95,2.25 5.25,2.25 z m 125.8499,-19.05 q 1.95,0 3,1.8 1.2,1.8 1.2,4.95 0,6 -2.85,9.3 -6.9,7.95 -14.25,13.05 -7.2,5.1 -16.5,5.1 -7.8,0 -10.95,-4.8 -3.15,-4.8 -3.15,-14.4 0,-4.05 0.75,-9.75 -13.2,0 -18.3,-0.3 -0.3,4.2 -0.3,5.85 v 3.15 q -0.15,9.3 -0.45,13.05 -0.3,3.75 -1.8,5.55 -1.5,1.65 -4.95,1.65 -5.7,0 -8.1,-6 -2.25,-6 -2.25,-19.2 0,-19.5 5.55,-37.05 1.35,-4.35 4.35,-6.3 3,-2.1 8.7,-2.1 3,0 4.2,0.75 1.2,0.75 1.2,2.85 0,2.4 -2.25,10.8 -1.2,4.95 -2.25,12 h 19.2 q 1.5,-7.05 4.35,-18 1.2,-4.5 3.6,-6.45 2.55,-1.95 7.5,-1.95 3.45,0 4.8,0.9 1.35,0.75 1.35,3 0,3.75 -3.75,20.55 -4.2,19.2 -4.2,23.7 0,2.85 1.2,4.5 1.2,1.5 3.15,1.5 3,0 7.05,-3.6 4.2,-3.75 11.1,-12 1.8,-2.1 4.05,-2.1 z m 7.3501,34.2 q -6.75,0 -11.1,-6.15 -4.2,-6.3 -4.2,-15.6 0,-11.25 1.5,-20.55 1.5,-9.45 4.95,-19.95 1.5,-4.5 4.2,-6.45 2.7,-1.95 8.55,-1.95 3.3,0 4.5,1.05 1.35,1.05 1.35,3.15 0,1.2 -1.65,8.1 -1.5,5.55 -2.4,10.05 -3,15.75 -3,21 0,3.15 0.75,4.5 0.75,1.2 2.4,1.2 2.25,0 5.55,-4.5 3.45,-4.5 7.2,-13.65 3.9,-9.15 7.5,-22.5 1.2,-4.5 3.6,-6.45 2.55,-1.95 7.5,-1.95 3.45,0 4.8,0.9 1.35,0.75 1.35,3 0,3.75 -3.75,20.55 -4.2,19.2 -4.2,23.7 0,2.85 1.2,4.5 1.2,1.5 3.15,1.5 3,0 7.05,-3.6 4.2,-3.75 11.1,-12 1.8,-2.1 4.05,-2.1 1.95,0 3,1.8 1.2,1.8 1.2,4.95 0,6 -2.85,9.3 -6.45,7.95 -13.95,13.05 -7.35,5.1 -16.8,5.1 -7.2,0 -10.65,-5.55 -3.3,-5.55 -3.3,-15.6 -2.55,10.2 -7.65,15.75 -5.1,5.4 -10.95,5.4 z m 143.3999,-34.2 q 1.95,0 3,1.8 1.2,1.8 1.2,4.95 0,6 -2.85,9.3 -7.8,9.15 -15,13.65 -7.2,4.5 -14.25,4.5 -6.15,0 -9.45,-4.35 -3.3,-4.35 -3.3,-12.45 0,-4.35 0.9,-9.45 h -0.3 q -13.95,26.25 -35.55,26.25 -9.3,0 -15.15,-5.4 -5.7,-5.4 -5.7,-14.25 0,-7.8 3.45,-12.3 3.6,-4.5 9.75,-4.5 5.4,0 5.4,4.35 0,0.6 -0.3,2.1 -0.3,2.4 -0.3,3.6 0,4.8 2.1,7.95 2.1,3.15 5.7,3.15 4.65,0 9.45,-2.85 4.8,-3 9.45,-8.4 h -1.95 q -9,0 -14.4,-5.7 -5.25,-5.7 -5.25,-15.3 0,-11.1 6.45,-17.1 6.45,-6.15 18,-6.15 8.1,0 16.65,2.55 1.65,-2.25 6.9,-2.25 3,0 4.65,1.5 1.8,1.35 1.5,3.75 -0.3,3.75 -2.7,13.35 -2.25,9.6 -3.45,16.5 -1.2,6.9 -1.2,12.9 0,2.85 1.05,4.5 1.2,1.5 3.3,1.5 2.85,0 6.9,-3.45 4.05,-3.45 11.25,-12.15 1.65,-2.1 4.05,-2.1 z m -43.8,-3.9 q 5.1,-8.85 8.1,-18.9 -5.4,-1.65 -9.6,-1.65 -6,0 -9.3,2.85 -3.3,2.85 -3.3,8.1 0,4.2 2.7,7.05 2.85,2.85 7.05,2.85 1.95,0 4.35,-0.3 z"
     id="logoText"
     style="font-size:150px;font-family:Pacifico"
     aria-label="Запретные Знания" />
</svg>
